<svg width="11" height="14" viewBox="0 0 11 14" fill="none" xmlns="http://www.w3.org/2000/svg">
<path d="M1.81603 0.38565C1.56254 0.445108 1.18388 0.65165 0.971083 0.839416C0.736377 1.04909 0.50167 1.40584 0.39527 1.72191L0.307647 1.97852L0.298258 5.69314C0.295129 7.73978 0.295129 9.41089 0.304517 9.41089C0.313905 9.41089 0.426564 9.33578 0.554871 9.2419C0.858424 9.02284 1.19953 8.86324 1.57506 8.75684L1.87235 8.67548L6.43504 8.66609L10.9977 8.6567L10.9883 5.33326C10.979 2.27582 10.9727 1.99417 10.9226 1.82205C10.713 1.10229 10.1465 0.54525 9.45806 0.382521C9.16703 0.316803 2.09767 0.316803 1.81603 0.38565ZM6.00006 2.43229C6.06264 2.4761 6.1534 2.56685 6.20034 2.63257C6.27544 2.7421 6.28483 2.78591 6.28483 2.99558C6.28483 3.20525 6.27544 3.24907 6.20034 3.3586C6.1534 3.42431 6.06264 3.51507 5.99693 3.55888C5.89991 3.6246 5.84671 3.63711 5.6433 3.63711C5.43989 3.63711 5.38669 3.6246 5.28968 3.55888C5.22396 3.51507 5.13321 3.42431 5.08627 3.3586C5.01116 3.24907 5.00177 3.20525 5.00177 2.99245C5.00177 2.7734 5.01116 2.73897 5.09565 2.61692C5.23648 2.41664 5.42111 2.33215 5.67773 2.34467C5.8342 2.35405 5.91243 2.37596 6.00006 2.43229ZM5.91869 4.5822C5.9625 4.61349 6.02822 4.68234 6.06264 4.72928C6.12523 4.81378 6.12836 4.85133 6.12836 5.99982C6.12836 7.14832 6.12523 7.18587 6.06264 7.27037C5.9406 7.43623 5.84046 7.4863 5.6433 7.4863C5.44615 7.4863 5.34601 7.43623 5.22396 7.27037C5.16137 7.189 5.15824 7.13893 5.14885 6.08432C5.1426 5.47721 5.14885 4.93895 5.15824 4.88262C5.18015 4.75745 5.31158 4.59785 5.43989 4.54152C5.56507 4.48206 5.81542 4.50396 5.91869 4.5822Z" fill="#BDBDBD"/>
<path d="M2.10704 9.68006C1.83478 9.72074 1.65328 9.77707 1.41857 9.8866C1.04304 10.0681 0.695674 10.4123 0.517297 10.7879C0.351438 11.1352 0.310755 11.3324 0.313885 11.7111C0.320144 12.4496 0.723838 13.1005 1.38727 13.4479C1.83165 13.6763 1.61572 13.6669 5.63389 13.6669C8.103 13.6669 9.29218 13.6575 9.40484 13.6325C9.65832 13.5824 10.109 13.3477 10.3124 13.1662C10.5377 12.9659 10.7818 12.6061 10.8663 12.3463C10.9789 12.0052 10.9977 11.7549 10.9883 10.694L10.9789 9.67693L6.58211 9.6738C4.16307 9.67067 2.15085 9.6738 2.10704 9.68006Z" fill="#BDBDBD"/>
</svg>
