<svg width="24" height="24" viewBox="0 0 24 24" fill="none" xmlns="http://www.w3.org/2000/svg">
<path d="M8.99853 20C8.77562 20 8.5527 19.9179 8.37672 19.7419L1.25518 12.6203C0.91494 12.2801 0.91494 11.717 1.25518 11.3767L8.37672 4.25518C8.71696 3.91494 9.28011 3.91494 9.62035 4.25518C9.96059 4.59542 9.96059 5.15857 9.62035 5.49881L3.12062 11.9985L9.62035 18.4983C9.96059 18.8385 9.96059 19.4017 9.62035 19.7419C9.4561 19.9179 9.22145 20 8.99853 20Z" fill="#ED9D99"/>
<path d="M21.822 12.8781H2.07646C1.59543 12.8781 1.19653 12.4792 1.19653 11.9982C1.19653 11.5172 1.59543 11.1183 2.07646 11.1183H21.822C22.303 11.1183 22.7019 11.5172 22.7019 11.9982C22.7019 12.4792 22.303 12.8781 21.822 12.8781Z" fill="#ED9D99"/>
</svg>
