<svg width="14" height="14" viewBox="0 0 14 14" fill="none" xmlns="http://www.w3.org/2000/svg">
<path d="M3.62988 10.6663L8.62988 8.33301L10.9632 3.33301L5.96322 5.66634L3.62988 10.6663ZM7.29655 7.66634C7.10766 7.66634 6.94944 7.60234 6.82188 7.47434C6.69388 7.34679 6.62988 7.18856 6.62988 6.99967C6.62988 6.81079 6.69388 6.65234 6.82188 6.52434C6.94944 6.39679 7.10766 6.33301 7.29655 6.33301C7.48544 6.33301 7.64388 6.39679 7.77188 6.52434C7.89944 6.65234 7.96322 6.81079 7.96322 6.99967C7.96322 7.18856 7.89944 7.34679 7.77188 7.47434C7.64388 7.60234 7.48544 7.66634 7.29655 7.66634ZM7.29655 13.6663C6.37433 13.6663 5.50766 13.4912 4.69655 13.141C3.88544 12.7912 3.17988 12.3163 2.57988 11.7163C1.97988 11.1163 1.50499 10.4108 1.15522 9.59967C0.804994 8.78856 0.629883 7.9219 0.629883 6.99967C0.629883 6.07745 0.804994 5.21079 1.15522 4.39967C1.50499 3.58856 1.97988 2.88301 2.57988 2.28301C3.17988 1.68301 3.88544 1.2079 4.69655 0.857674C5.50766 0.507897 6.37433 0.333008 7.29655 0.333008C8.21877 0.333008 9.08544 0.507897 9.89655 0.857674C10.7077 1.2079 11.4132 1.68301 12.0132 2.28301C12.6132 2.88301 13.0881 3.58856 13.4379 4.39967C13.7881 5.21079 13.9632 6.07745 13.9632 6.99967C13.9632 7.9219 13.7881 8.78856 13.4379 9.59967C13.0881 10.4108 12.6132 11.1163 12.0132 11.7163C11.4132 12.3163 10.7077 12.7912 9.89655 13.141C9.08544 13.4912 8.21877 13.6663 7.29655 13.6663Z" fill="#BDBDBD"/>
</svg>
