<svg width="14" height="14" viewBox="0 0 14 14" fill="none" xmlns="http://www.w3.org/2000/svg">
<path d="M1.7028 0.385417C1.44499 0.453125 1.24967 0.570313 1.04655 0.773438C0.846029 0.979167 0.749674 1.14323 0.681966 1.41667C0.632487 1.60938 0.629883 1.71094 0.629883 4.11458V6.60938H1.67936H2.72624L2.72884 6.44531C2.74186 5.53385 3.62988 4.85938 4.52051 5.08854C4.76009 5.15104 4.97103 5.27344 5.16113 5.46354C5.42936 5.73177 5.57519 6.0625 5.58561 6.42448L5.59082 6.60938H6.24967H6.90592V5.64583C6.90592 4.73698 6.90853 4.67448 6.95801 4.58073C6.99186 4.51042 7.04394 4.46094 7.12207 4.42448C7.2679 4.35417 7.31738 4.35417 7.51269 4.4401C7.98926 4.64583 8.46842 4.35417 8.46842 3.86198C8.46842 3.60938 8.34863 3.41146 8.12467 3.28906C7.93978 3.1875 7.73926 3.1875 7.51269 3.28385C7.42415 3.32292 7.32519 3.35417 7.29134 3.35417C7.18197 3.35417 7.02311 3.2526 6.96322 3.14844C6.90592 3.04948 6.90592 3.03646 6.90592 1.6901V0.333333L4.40072 0.335938C2.0127 0.335938 1.88249 0.338542 1.7028 0.385417Z" fill="#BDBDBD"/>
<path d="M7.68701 1.38021V2.42969L7.85107 2.43229C8.76253 2.44531 9.43701 3.33333 9.20784 4.22396C9.0542 4.82292 8.4917 5.27344 7.87712 5.28906L7.68701 5.29427V5.95052V6.60938H8.65316C9.59847 6.60938 9.62191 6.60938 9.72087 6.66667C9.82503 6.72656 9.92659 6.88542 9.92659 6.99479C9.92659 7.02865 9.89534 7.1276 9.85628 7.21615C9.65055 7.69271 9.94222 8.17188 10.4344 8.17188C10.687 8.17188 10.8849 8.05208 11.0073 7.82813C11.1089 7.64323 11.1089 7.44271 11.0125 7.21615C10.9292 7.02083 10.9266 6.97135 10.9969 6.82552C11.0334 6.7474 11.0828 6.69531 11.1532 6.66146C11.2495 6.61198 11.312 6.60938 12.6089 6.60938H13.9631V4.11458C13.9631 1.70833 13.9604 1.60938 13.911 1.41667C13.8433 1.14844 13.7313 0.955729 13.5229 0.75C13.3198 0.549479 13.1532 0.455729 12.8797 0.385417C12.687 0.335938 12.5854 0.333334 10.1818 0.333334H7.68701V1.38021Z" fill="#BDBDBD"/>
<path d="M3.91634 5.86751C3.55436 6.02376 3.41634 6.39876 3.5804 6.78418C3.61947 6.87272 3.65072 6.97168 3.65072 7.00553C3.65072 7.11491 3.54915 7.27376 3.44499 7.33366C3.34603 7.39095 3.33301 7.39095 1.98665 7.39095H0.629883V9.88574C0.629883 12.292 0.632487 12.391 0.681966 12.5837C0.74707 12.8467 0.861654 13.042 1.05697 13.2399C1.25488 13.4352 1.4502 13.5498 1.71322 13.6149C1.90592 13.6644 2.00488 13.667 4.41113 13.667H6.90592V12.6175V11.5706L6.74186 11.568C6.22103 11.5602 5.71322 11.2373 5.49447 10.7764C5.21842 10.1956 5.31999 9.57585 5.76009 9.13574C6.02832 8.86751 6.35905 8.72168 6.72103 8.71126L6.90592 8.70606V8.0472V7.39095H5.93978C4.99447 7.39095 4.97103 7.39095 4.87207 7.33366C4.7679 7.27376 4.66634 7.11491 4.66634 7.00553C4.66634 6.97168 4.69759 6.87272 4.73665 6.78418C4.90072 6.40397 4.75749 6.01856 4.3929 5.86491C4.28092 5.81803 4.02832 5.81803 3.91634 5.86751Z" fill="#BDBDBD"/>
<path d="M7.68713 8.3571C7.68713 9.30241 7.68713 9.32585 7.62984 9.42481C7.56995 9.52897 7.41109 9.63053 7.30172 9.63053C7.26786 9.63053 7.1689 9.59928 7.08036 9.56022C6.6038 9.35449 6.12463 9.64616 6.12463 10.1383C6.12463 10.391 6.24443 10.5889 6.46838 10.7113C6.65328 10.8128 6.8538 10.8128 7.08036 10.7165C7.1689 10.6774 7.26786 10.6462 7.30172 10.6462C7.41109 10.6462 7.56995 10.7477 7.62984 10.8519C7.68713 10.9508 7.68713 10.9639 7.68713 12.3102V13.667H10.1819C12.5856 13.667 12.6871 13.6644 12.8798 13.6149C13.1533 13.5472 13.3173 13.4508 13.5231 13.2503C13.7314 13.0446 13.8434 12.8519 13.9111 12.5837C13.9606 12.391 13.9632 12.292 13.9632 9.88574V7.39095H12.9163H11.8668L11.8642 7.56803C11.8512 8.20606 11.3616 8.7946 10.7392 8.92481C9.86682 9.10449 9.03088 8.45606 9.00745 7.57585L9.00224 7.39095H8.34599H7.68713V8.3571Z" fill="#BDBDBD"/>
</svg>
