<svg width="20" height="20" viewBox="0 0 20 20" fill="none" xmlns="http://www.w3.org/2000/svg">
<path d="M9.59962 5.95318L9.99998 6.48831L10.4003 5.95318C10.9837 5.17339 11.9182 4.66699 12.96 4.66699C14.7282 4.66699 16.1666 6.10746 16.1666 7.89366C16.1666 8.63261 16.0488 9.31407 15.8442 9.94641L15.8432 9.94967C15.3524 11.503 14.3443 12.7608 13.2483 13.7028C12.15 14.6467 10.9921 15.2486 10.2523 15.5003L10.2522 15.5003L10.2469 15.5022C10.2037 15.5174 10.1142 15.5337 9.99998 15.5337C9.88573 15.5337 9.79623 15.5174 9.75306 15.5022L9.75307 15.5021L9.7477 15.5003C9.00791 15.2486 7.84998 14.6467 6.75171 13.7028C5.65564 12.7608 4.64761 11.503 4.15674 9.94967L4.15675 9.94966L4.1557 9.94641C3.95112 9.31407 3.83331 8.63261 3.83331 7.89366C3.83331 6.10746 5.27179 4.66699 7.03998 4.66699C8.08174 4.66699 9.01622 5.17339 9.59962 5.95318Z" stroke="#BDBDBD"/>
</svg>
