<svg  width="14" height="14" viewBox="0 0 14 14" fill="none" xmlns="http://www.w3.org/2000/svg">
<path d="M13.4417 12.9546C13.4417 13.1433 13.3667 13.3244 13.2332 13.4579C13.0998 13.5914 12.9187 13.6663 12.7299 13.6663H1.34165C1.15288 13.6663 0.971837 13.5914 0.838355 13.4579C0.704873 13.3244 0.629883 13.1433 0.629883 12.9546V5.47389C0.629808 5.36543 0.654522 5.25838 0.702139 5.16093C0.749755 5.06347 0.819014 4.97819 0.904625 4.91159L6.59877 0.482973C6.72372 0.385778 6.8775 0.333008 7.0358 0.333008C7.19409 0.333008 7.34788 0.385778 7.47282 0.482973L13.167 4.91159C13.2526 4.97819 13.3218 5.06347 13.3695 5.16093C13.4171 5.25838 13.4418 5.36543 13.4417 5.47389V12.9546ZM6.32403 7.9722V12.2428H7.74756V7.9722H6.32403Z" fill="#BDBDBD"/>
</svg>
