<svg width="24" height="24" viewBox="0 0 24 24" fill="none" xmlns="http://www.w3.org/2000/svg">
<path d="M18.7227 17.725C18.9087 17.9115 19.0353 18.1488 19.0866 18.4072C19.1379 18.6655 19.1115 18.9333 19.0107 19.1766C18.91 19.42 18.7395 19.628 18.5206 19.7746C18.3018 19.9211 18.0444 19.9995 17.7811 20H6.33105C6.06768 19.9995 5.81033 19.9211 5.59149 19.7746C5.37264 19.628 5.2021 19.42 5.10137 19.1766C5.00064 18.9333 4.97424 18.6655 5.0255 18.4072C5.07675 18.1488 5.20338 17.9115 5.38939 17.725L11.1144 12L5.38939 6.275C5.20338 6.08854 5.07675 5.85117 5.0255 5.59283C4.97424 5.33448 5.00064 5.06675 5.10137 4.8234C5.2021 4.58004 5.37264 4.37197 5.59149 4.22543C5.81033 4.07889 6.06768 4.00045 6.33105 4H17.7811C18.0444 4.00045 18.3018 4.07889 18.5206 4.22543C18.7395 4.37197 18.91 4.58004 19.0107 4.8234C19.1115 5.06675 19.1379 5.33448 19.0866 5.59283C19.0353 5.85117 18.9087 6.08854 18.7227 6.275L12.9977 12L18.7227 17.725Z" fill="#BDBDBD"/>
</svg>
