<svg width="16" height="16" viewBox="0 0 16 16" fill="none" xmlns="http://www.w3.org/2000/svg">
<path d="M11.84 0H9.75998C7.19998 0 5.59998 1.6 5.59998 4.16V7.4H9.15198L7.49598 5.744C7.37598 5.624 7.31998 5.472 7.31998 5.32C7.31998 5.168 7.37598 5.016 7.49598 4.896C7.72798 4.664 8.11198 4.664 8.34398 4.896L11.024 7.576C11.256 7.808 11.256 8.192 11.024 8.424L8.34398 11.104C8.11198 11.336 7.72798 11.336 7.49598 11.104C7.26398 10.872 7.26398 10.488 7.49598 10.256L9.15198 8.6H5.59998V11.84C5.59998 14.4 7.19998 16 9.75998 16H11.832C14.392 16 15.992 14.4 15.992 11.84V4.16C16 1.6 14.4 0 11.84 0Z" fill="white"/>
<path d="M0.6 7.40039C0.272 7.40039 0 7.67239 0 8.00039C0 8.32839 0.272 8.60039 0.6 8.60039H5.6V7.40039H0.6Z" fill="white"/>
</svg>
