<svg width="16" height="13" viewBox="0 0 16 13" fill="none" xmlns="http://www.w3.org/2000/svg">
<path d="M12.4556 0.244564C12.3823 0.28559 12.0014 0.502444 11.6087 0.731021C11.2189 0.959597 10.8849 1.14422 10.8732 1.14422C10.8585 1.14422 10.5068 1.02114 10.0907 0.868752C9.67459 0.716368 9.25261 0.575706 9.15004 0.558123C8.90681 0.508306 8.59032 0.534679 8.35295 0.622593C8.11266 0.710507 5.66572 2.11713 5.49868 2.26365C5.34337 2.39846 5.2027 2.65927 5.16168 2.88784C5.05032 3.51203 5.51919 4.10985 6.15511 4.15673C6.53314 4.18311 6.42471 4.23293 8.41156 3.08711C9.00059 2.74718 9.53393 2.45413 9.59547 2.43362C9.78009 2.37501 10.0673 2.41018 10.2724 2.51567C10.3691 2.56549 11.597 3.27173 12.9977 4.08347C15.4359 5.49596 15.5502 5.5575 15.6146 5.51647C15.7055 5.45786 15.7963 5.27324 15.7963 5.15016C15.7963 5.03587 15.8315 5.09741 14.2285 2.36622C13.4227 0.994762 12.9977 0.297312 12.9421 0.256286C12.8131 0.16251 12.6138 0.15958 12.4556 0.244564Z" fill="#BDBDBD"/>
<path d="M3.59093 0.853769C3.54112 0.865491 3.46492 0.915309 3.4239 0.959266C3.36236 1.02667 1.22605 4.96814 0.883184 5.64801C0.777687 5.86193 0.768896 5.98501 0.853879 6.12568C0.927141 6.24289 0.968167 6.28099 1.12641 6.36304C1.21726 6.41286 1.24363 6.41579 1.26414 6.38356C1.2788 6.36304 1.39308 6.1667 1.51616 5.94985C1.86196 5.3491 2.20189 5.04726 2.71179 4.88609C2.87883 4.83334 2.98433 4.82162 3.26858 4.82162C3.57335 4.82455 3.64954 4.83334 3.84881 4.90367C4.10376 4.99159 4.35578 5.14104 4.51696 5.29635L4.62246 5.39599L4.79535 5.34617C5.00635 5.2817 5.45764 5.27584 5.68622 5.33152C5.77413 5.35203 5.95875 5.42236 6.09648 5.48683C6.55363 5.70369 6.95804 6.19894 7.06646 6.6766C7.10163 6.8202 7.11042 6.83192 7.22178 6.86122C7.45036 6.92276 7.79615 7.12496 7.9837 7.30958C8.20642 7.5323 8.35587 7.7726 8.45844 8.0803L8.53756 8.31766L8.74562 8.39385C9.18812 8.55503 9.55443 8.88324 9.76249 9.30523C9.92953 9.64809 9.97348 9.85909 9.95883 10.2283C9.93832 10.6474 9.87385 10.8203 9.49289 11.4796C9.27017 11.8635 9.18519 12.0364 9.21156 12.0481C9.22915 12.0599 9.52219 12.2269 9.85627 12.4203C10.5098 12.7983 10.6563 12.854 10.9288 12.8276C11.1838 12.8071 11.3772 12.7075 11.5618 12.5082C11.9164 12.1243 11.9222 11.5822 11.5735 11.1807C11.4885 11.0811 11.4856 11.0723 11.5471 11.1104C11.7318 11.2276 12.1039 11.4327 12.2329 11.4914C12.5582 11.6349 13.0065 11.547 13.2703 11.2892C13.493 11.0694 13.5545 10.917 13.5545 10.5653C13.5545 10.243 13.5164 10.1316 13.3259 9.9177L13.2322 9.80927L13.5252 9.96751C13.8183 10.1258 13.8183 10.1258 14.082 10.1258C14.3926 10.1258 14.5421 10.0701 14.756 9.87374C15.1604 9.49864 15.1809 8.86566 14.8 8.47298C14.7384 8.40851 14.5831 8.29715 14.4571 8.22096C14.2461 8.09788 14.2373 8.08909 14.3457 8.1096C14.8146 8.20337 15.2864 7.96601 15.4828 7.53816C15.5824 7.32423 15.5736 6.95793 15.4681 6.73814C15.4212 6.6473 15.3333 6.52129 15.2688 6.45682C15.1956 6.38649 14.7531 6.11102 14.1318 5.75351C13.5721 5.42822 12.394 4.74836 11.512 4.23846C10.6299 3.72855 9.8885 3.30364 9.86799 3.29485C9.84748 3.28899 9.24966 3.6172 8.54049 4.02453C7.02544 4.90074 7.00492 4.91246 6.71774 4.98572C5.97633 5.17327 5.13529 4.88316 4.67521 4.27655C4.40267 3.91317 4.2708 3.52342 4.2708 3.07799C4.2708 2.5593 4.45835 2.08749 4.81001 1.71533L5.01221 1.5014L4.47593 1.19077C3.7902 0.79809 3.78434 0.79516 3.59093 0.853769Z" fill="#BDBDBD"/>
<path d="M2.9696 5.72685C2.8055 5.7796 2.67656 5.86458 2.54469 5.99938C2.44505 6.10488 1.40767 7.86316 1.27873 8.14741C1.18788 8.34962 1.19374 8.69541 1.29631 8.91227C1.39301 9.12326 1.57177 9.30495 1.7857 9.40458C1.92343 9.46905 1.99083 9.48078 2.19889 9.48078C2.49194 9.48078 2.69707 9.40165 2.88462 9.2141C2.95788 9.14084 2.99012 9.12033 2.97546 9.15842C2.96374 9.19066 2.94616 9.32253 2.9403 9.45147C2.92858 9.64195 2.93737 9.71521 2.98719 9.85001C3.0751 10.0815 3.24507 10.2632 3.48244 10.3804C3.65533 10.4654 3.70515 10.4771 3.91321 10.4771C4.19454 10.4742 4.41139 10.3892 4.59308 10.2075L4.70737 10.0932L4.66927 10.2398C4.61946 10.4332 4.62239 10.565 4.67807 10.7555C4.88906 11.4706 5.74475 11.7079 6.30154 11.2068L6.41583 11.1043L6.3836 11.2156C6.33378 11.4002 6.36894 11.7431 6.45686 11.9131C6.5477 12.0889 6.73818 12.2794 6.91694 12.3702C7.11328 12.4698 7.46201 12.4816 7.68765 12.3966C7.98363 12.2852 8.09499 12.1475 8.58437 11.2977C8.8276 10.8727 9.0386 10.4742 9.05911 10.3951C9.11186 10.1841 9.07962 9.89104 8.98585 9.70642C8.68401 9.11154 7.91916 8.97674 7.4327 9.43389L7.31841 9.53939L7.42684 9.34891C7.57629 9.08809 7.62025 8.9826 7.65835 8.80091C7.71989 8.51079 7.59681 8.15328 7.36237 7.93642C6.97555 7.58184 6.41876 7.57304 6.02315 7.91591L5.90886 8.01554L6.00557 7.85437C6.2107 7.50857 6.22828 7.44996 6.22828 7.15106C6.22828 6.91369 6.21656 6.84922 6.15795 6.72614C5.94989 6.30415 5.48101 6.08437 5.03851 6.19573C4.71909 6.27778 4.5374 6.43016 4.33227 6.79061C4.26487 6.90783 4.20626 6.99867 4.2004 6.99574C4.19747 6.98988 4.20626 6.9342 4.22384 6.86973C4.29417 6.61771 4.19161 6.23089 3.99234 6.00525C3.94252 5.94664 3.81944 5.85579 3.71687 5.80304C3.56449 5.72099 3.49709 5.70341 3.31247 5.69462C3.1806 5.68876 3.04287 5.70341 2.9696 5.72685Z" fill="#BDBDBD"/>
</svg>
