<svg width="14" height="28" viewBox="0 0 14 28" fill="none" xmlns="http://www.w3.org/2000/svg">
<path d="M1.48273 27.3337C1.19049 27.3337 0.898257 27.226 0.667543 26.9953C0.221496 26.5492 0.221496 25.8109 0.667543 25.3649L10.6959 15.3365C11.4342 14.5983 11.4342 13.3985 10.6959 12.6603L0.667543 2.6319C0.221496 2.18586 0.221496 1.44757 0.667543 1.00153C1.11359 0.555481 1.85187 0.555481 2.29792 1.00153L12.3263 11.0299C13.1107 11.8143 13.5568 12.8756 13.5568 13.9984C13.5568 15.1212 13.1261 16.1825 12.3263 16.9669L2.29792 26.9953C2.06721 27.2106 1.77497 27.3337 1.48273 27.3337Z" fill="#3B7EC5"/>
</svg>
