<svg width="14" height="14" viewBox="0 0 14 14" fill="none" xmlns="http://www.w3.org/2000/svg">
<path d="M3.05224 0.370375C2.35944 0.518831 1.82812 1.18037 1.82812 1.8914C1.82812 2.73526 2.54697 3.4541 3.39082 3.4541C4.10967 3.4541 4.766 2.92018 4.91446 2.21696C5.02645 1.68565 4.87278 1.18298 4.48732 0.794908C4.09925 0.406838 3.58356 0.255777 3.05224 0.370375Z" fill="#BDBDBD"/>
<path d="M6.95886 0.369949C6.26606 0.518406 5.73474 1.17995 5.73474 1.89098C5.73474 2.60982 6.26866 3.26615 6.97188 3.41461C7.60217 3.54744 8.26111 3.27917 8.61792 2.74525C8.80284 2.46657 8.87316 2.23217 8.87316 1.89098C8.87316 1.6722 8.86014 1.57844 8.81065 1.42477C8.56062 0.661653 7.74802 0.198052 6.95886 0.369949Z" fill="#BDBDBD"/>
<path d="M10.8916 0.370375C10.1988 0.518831 9.66748 1.18037 9.66748 1.8914C9.66748 2.73526 10.3863 3.4541 11.2302 3.4541C11.949 3.4541 12.6054 2.92018 12.7538 2.21696C12.8658 1.68565 12.7121 1.18298 12.3267 0.794908C11.9386 0.406838 11.4229 0.255777 10.8916 0.370375Z" fill="#BDBDBD"/>
<path d="M1.88004 3.93325C1.48416 4.19891 1.14297 4.58438 0.932005 5.00891C0.715831 5.43865 0.629883 5.80849 0.629883 6.30856V6.60547H2.21602H3.79956L3.84383 6.37106C3.92718 5.91007 4.13554 5.41 4.41422 4.99068C4.48454 4.8839 4.6903 4.64949 4.8674 4.47238L5.19296 4.14943L5.13306 4.09994C5.0992 4.0739 4.99242 3.99837 4.89605 3.93325L4.72155 3.81605L4.54444 3.92023C3.85165 4.33174 2.96351 4.33695 2.26551 3.93325C2.15351 3.87075 2.05975 3.81866 2.05715 3.81866C2.05194 3.81866 1.9738 3.87075 1.88004 3.93325Z" fill="#BDBDBD"/>
<path d="M9.73002 3.93065C9.64147 3.99055 9.53729 4.06348 9.49822 4.09473L9.42529 4.14943L9.75086 4.47238C9.93057 4.64949 10.1363 4.8839 10.2066 4.99068C10.4853 5.41 10.6937 5.91007 10.777 6.37106L10.8213 6.60547H12.397H13.9727L13.9571 6.20698C13.9467 5.89705 13.9285 5.7538 13.8764 5.55065C13.8009 5.26155 13.6368 4.89692 13.4675 4.64689C13.3216 4.43071 12.9518 4.06869 12.7356 3.92804L12.5637 3.81605L12.358 3.93325C11.6573 4.33695 10.7718 4.33174 10.079 3.92284C9.98526 3.86554 9.90192 3.81866 9.89671 3.81866C9.8915 3.81866 9.81597 3.87075 9.73002 3.93065Z" fill="#BDBDBD"/>
<path d="M6.8468 4.27444C5.70083 4.49062 4.80488 5.38917 4.60433 6.51952L4.59131 6.60547H7.31301C9.89407 6.60547 10.0347 6.60286 10.0217 6.55859C10.0165 6.53515 10.0035 6.47264 9.99304 6.42315C9.96178 6.25126 9.86802 5.99341 9.75863 5.77203C9.40182 5.0584 8.74027 4.52447 7.96153 4.32393C7.63076 4.23798 7.14893 4.21714 6.8468 4.27444Z" fill="#BDBDBD"/>
<path d="M0.629883 7.60795C0.629883 7.73818 0.64551 7.8658 0.666346 7.91528C0.734063 8.08197 0.820011 8.12364 1.6821 8.40493L2.49991 8.67059L2.6093 8.93885L2.71609 9.20451L2.35406 9.93116C1.93474 10.7672 1.9113 10.8271 1.95818 10.9704C2.00506 11.1188 3.14583 12.2648 3.30731 12.3273C3.46097 12.3846 3.50264 12.369 4.36213 11.9392L5.08878 11.5772L5.35444 11.684L5.62271 11.7934L5.88837 12.6112C6.16965 13.4733 6.21132 13.5592 6.37801 13.6269C6.50042 13.679 8.12042 13.679 8.24283 13.6269C8.40952 13.5592 8.45119 13.4733 8.73248 12.6112L8.99814 11.7934L9.2664 11.684L9.53206 11.5772L10.2587 11.9392C11.0948 12.3586 11.1547 12.382 11.2979 12.3351C11.4464 12.2882 12.5923 11.1475 12.6549 10.986C12.7122 10.8323 12.6965 10.7906 12.2668 9.93116L11.9048 9.20451L12.0115 8.93885L12.1183 8.67319L12.9257 8.40493C13.7722 8.12364 13.8607 8.08197 13.9285 7.91528C13.9493 7.8658 13.9649 7.73818 13.9649 7.60795V7.38657H12.3788H10.7952L10.777 7.522C10.6286 8.65757 9.7899 9.74104 8.69081 10.2203C7.38335 10.7906 5.83367 10.4937 4.83094 9.48059C4.32827 8.97271 3.96104 8.25647 3.85425 7.57409L3.823 7.38657H2.22644H0.629883V7.60795Z" fill="#BDBDBD"/>
<path d="M4.61475 7.43352C4.61475 7.52468 4.71632 7.87628 4.79706 8.07162C5.02886 8.62898 5.53674 9.16811 6.08108 9.43638C7.26092 10.0172 8.6387 9.70464 9.46432 8.66545C9.64924 8.43625 9.87844 7.97265 9.95397 7.68876C10.0373 7.36059 10.066 7.38664 9.62059 7.38664H9.23513L9.20127 7.51426C9.15439 7.70178 9.00854 7.99349 8.87571 8.16278C8.60223 8.5222 8.235 8.76442 7.78963 8.88683C7.55262 8.95194 7.03433 8.95194 6.80253 8.88683C6.16182 8.70191 5.64873 8.21747 5.456 7.61583L5.38307 7.38664H5.00021C4.6434 7.38664 4.61475 7.38924 4.61475 7.43352Z" fill="#BDBDBD"/>
<path d="M6.20349 7.40478C6.20349 7.4178 6.23995 7.48812 6.28423 7.56626C6.52905 7.99339 7.01089 8.2278 7.4849 8.14706C7.72973 8.10539 7.96934 7.98298 8.13342 7.81889C8.25063 7.70169 8.41732 7.46208 8.41732 7.40478C8.41732 7.39436 7.91986 7.38655 7.3104 7.38655C6.70095 7.38655 6.20349 7.39436 6.20349 7.40478Z" fill="#BDBDBD"/>
</svg>
