<svg width="96" height="24" viewBox="0 0 96 24" fill="none" xmlns="http://www.w3.org/2000/svg">
<path d="M92 12C92 7.584 88.416 4 84 4C79.584 4 76 7.584 76 12C76 15.872 78.752 19.096 82.4 19.84V14.4H80.8V12H82.4V10C82.4 8.456 83.656 7.2 85.2 7.2H87.2V9.6H85.6C85.16 9.6 84.8 9.96 84.8 10.4V12H87.2V14.4H84.8V19.96C88.84 19.56 92 16.152 92 12Z" fill="#ED9D99"/>
<path d="M50.56 12C50.56 12.5063 50.4099 13.0013 50.1286 13.4223C49.8473 13.8432 49.4474 14.1714 48.9797 14.3651C48.5119 14.5589 47.9972 14.6096 47.5006 14.5108C47.004 14.412 46.5478 14.1682 46.1898 13.8102C45.8318 13.4522 45.588 12.996 45.4892 12.4994C45.3904 12.0028 45.4411 11.4881 45.6349 11.0203C45.8286 10.5526 46.1568 10.1527 46.5777 9.87144C46.9987 9.59014 47.4937 9.44 48 9.44C48.6783 9.44211 49.3282 9.7125 49.8079 10.1921C50.2875 10.6718 50.5579 11.3217 50.56 12ZM56 8.48V15.52C56 16.7082 55.528 17.8477 54.6878 18.6878C53.8477 19.528 52.7082 20 51.52 20H44.48C43.2918 20 42.1523 19.528 41.3122 18.6878C40.472 17.8477 40 16.7082 40 15.52V8.48C40 7.29183 40.472 6.15232 41.3122 5.31216C42.1523 4.472 43.2918 4 44.48 4H51.52C52.7082 4 53.8477 4.472 54.6878 5.31216C55.528 6.15232 56 7.29183 56 8.48ZM51.84 12C51.84 11.2405 51.6148 10.4981 51.1928 9.86661C50.7709 9.23513 50.1712 8.74294 49.4695 8.4523C48.7678 8.16166 47.9957 8.08562 47.2509 8.23378C46.506 8.38195 45.8217 8.74768 45.2847 9.28471C44.7477 9.82174 44.382 10.506 44.2338 11.2509C44.0856 11.9957 44.1617 12.7678 44.4523 13.4695C44.7429 14.1712 45.2351 14.7709 45.8666 15.1928C46.4981 15.6148 47.2405 15.84 48 15.84C49.0184 15.84 49.9952 15.4354 50.7153 14.7153C51.4354 13.9952 51.84 13.0184 51.84 12ZM53.12 7.84C53.12 7.65013 53.0637 7.46452 52.9582 7.30665C52.8527 7.14878 52.7028 7.02574 52.5274 6.95308C52.352 6.88042 52.1589 6.8614 51.9727 6.89845C51.7865 6.93549 51.6154 7.02692 51.4812 7.16118C51.3469 7.29544 51.2555 7.46649 51.2184 7.65271C51.1814 7.83893 51.2004 8.03196 51.2731 8.20738C51.3457 8.38279 51.4688 8.53272 51.6267 8.63821C51.7845 8.7437 51.9701 8.8 52.16 8.8C52.4146 8.8 52.6588 8.69886 52.8388 8.51882C53.0189 8.33879 53.12 8.09461 53.12 7.84Z" fill="#ED9D99"/>
<path d="M18.2222 4C18.6937 4 19.1459 4.1873 19.4793 4.5207C19.8127 4.8541 20 5.30628 20 5.77778V18.2222C20 18.6937 19.8127 19.1459 19.4793 19.4793C19.1459 19.8127 18.6937 20 18.2222 20H5.77778C5.30628 20 4.8541 19.8127 4.5207 19.4793C4.1873 19.1459 4 18.6937 4 18.2222V5.77778C4 5.30628 4.1873 4.8541 4.5207 4.5207C4.8541 4.1873 5.30628 4 5.77778 4H18.2222ZM17.7778 17.7778V13.0667C17.7778 12.2981 17.4725 11.5611 16.929 11.0176C16.3856 10.4742 15.6485 10.1689 14.88 10.1689C14.1244 10.1689 13.2444 10.6311 12.8178 11.3244V10.3378H10.3378V17.7778H12.8178V13.3956C12.8178 12.7111 13.3689 12.1511 14.0533 12.1511C14.3834 12.1511 14.6999 12.2822 14.9333 12.5156C15.1667 12.749 15.2978 13.0655 15.2978 13.3956V17.7778H17.7778ZM7.44889 8.94222C7.84495 8.94222 8.22478 8.78489 8.50484 8.50484C8.78489 8.22478 8.94222 7.84495 8.94222 7.44889C8.94222 6.62222 8.27556 5.94667 7.44889 5.94667C7.05047 5.94667 6.66838 6.10494 6.38666 6.38666C6.10494 6.66838 5.94667 7.05047 5.94667 7.44889C5.94667 8.27556 6.62222 8.94222 7.44889 8.94222ZM8.68444 17.7778V10.3378H6.22222V17.7778H8.68444Z" fill="#ED9D99"/>
</svg>
